<?xml version="1.0" standalone="no"?>
<!DOCTYPE svg PUBLIC "-//W3C//DTD SVG 20010904//EN"
 "http://www.w3.org/TR/2001/REC-SVG-20010904/DTD/svg10.dtd">
<svg version="1.0" xmlns="http://www.w3.org/2000/svg"
 width="640.000000pt" height="640.000000pt" viewBox="0 0 640.000000 640.000000"
 preserveAspectRatio="xMidYMid meet">
<metadata>
Created by potrace 1.14, written by Peter Selinger 2001-2017
</metadata>
<g transform="translate(0.000000,640.000000) scale(0.100000,-0.100000)"
fill="#000000" stroke="none">
<path d="M3125 5434 c-136 -34 -242 -120 -295 -244 -20 -45 -24 -72 -25 -151
0 -90 2 -99 37 -171 45 -91 103 -147 196 -191 59 -28 77 -32 152 -31 47 0 94
3 105 6 118 31 207 104 262 215 36 73 38 82 38 173 0 91 -2 101 -37 172 -68
136 -185 215 -334 223 -43 2 -88 2 -99 -1z"/>
<path d="M1326 4463 c-117 -35 -216 -129 -262 -249 -29 -75 -26 -201 6 -283
35 -91 130 -186 219 -220 214 -83 447 21 527 234 15 41 19 72 18 146 0 151
-80 276 -219 345 -65 32 -85 37 -157 39 -52 2 -101 -2 -132 -12z"/>
<path d="M2946 4464 c-179 -35 -335 -115 -456 -236 -102 -100 -119 -128 -320
-503 -24 -44 -59 -109 -78 -145 -55 -103 -94 -175 -98 -179 -2 -2 -39 12 -81
32 -150 70 -208 80 -473 80 -212 1 -243 -2 -315 -21 -216 -60 -390 -183 -511
-362 -30 -44 -58 -94 -144 -255 -24 -44 -98 -181 -165 -305 -138 -256 -135
-250 -142 -309 -14 -128 89 -249 217 -256 146 -9 182 27 361 360 l139 260 1
-210 c0 -115 3 -223 5 -239 14 -85 92 -183 180 -227 49 -24 51 -24 374 -24
l325 0 50 25 c64 31 124 91 155 155 24 48 25 58 28 284 l3 235 45 -85 c47 -87
116 -215 166 -309 63 -116 91 -156 127 -182 48 -34 119 -52 177 -44 164 22
253 208 171 356 -13 25 -50 95 -82 155 -32 61 -81 153 -110 205 -28 52 -78
144 -109 203 l-58 108 20 22 c10 12 41 63 67 112 26 50 60 113 75 140 15 28
51 95 80 150 29 55 57 104 61 110 5 5 9 -114 10 -275 0 -157 3 -298 5 -314 12
-69 73 -159 139 -204 71 -47 122 -53 442 -50 294 3 299 3 348 28 64 31 124 91
155 155 25 50 25 53 28 364 3 260 5 310 16 290 7 -13 30 -55 51 -94 54 -99 95
-176 150 -280 27 -49 59 -105 72 -123 l24 -32 -59 -113 c-33 -61 -86 -161
-119 -222 -68 -124 -137 -254 -179 -335 -66 -127 -17 -284 106 -338 88 -39
199 -20 264 45 20 20 59 80 87 132 66 122 125 233 183 341 l46 85 1 -212 c1
-117 2 -216 3 -220 1 -5 6 -24 10 -43 17 -72 93 -164 161 -194 69 -32 103 -35
381 -36 265 -1 292 1 349 20 75 25 149 91 186 166 23 47 24 60 27 283 l4 234
45 -84 c24 -46 62 -115 82 -154 21 -38 65 -119 97 -178 32 -60 72 -122 88
-138 92 -90 245 -89 333 1 52 54 72 105 69 177 -2 59 -18 98 -89 228 -18 33
-55 101 -81 150 -277 516 -294 544 -392 640 -129 127 -277 204 -461 239 -109
21 -425 18 -527 -4 -87 -20 -181 -52 -234 -82 -44 -24 -47 -24 -69 20 -78 155
-334 619 -369 667 -89 126 -192 214 -329 281 -149 73 -216 86 -460 89 -145 2
-231 -2 -279 -11z"/>
<path d="M4835 4458 c-109 -37 -198 -120 -245 -228 -20 -45 -24 -72 -25 -151
0 -90 2 -99 37 -171 45 -91 103 -147 196 -191 61 -29 76 -32 163 -32 90 0 99
2 172 38 90 44 157 114 196 205 36 82 36 211 1 300 -36 91 -103 163 -195 208
-65 32 -86 37 -157 40 -63 2 -97 -2 -143 -18z"/>
<path d="M235 1589 c-233 -68 -311 -360 -142 -532 24 -23 65 -54 92 -67 l50
-25 2965 0 2965 0 50 25 c64 31 124 91 155 155 35 71 34 197 -1 270 -30 63
-90 123 -154 155 l-50 25 -2950 2 c-1688 1 -2963 -2 -2980 -8z"/>
</g>
</svg>
