<?xml version="1.0" standalone="no"?>
<!DOCTYPE svg PUBLIC "-//W3C//DTD SVG 20010904//EN"
 "http://www.w3.org/TR/2001/REC-SVG-20010904/DTD/svg10.dtd">
<svg version="1.0" xmlns="http://www.w3.org/2000/svg"
 width="700.000000pt" height="700.000000pt" viewBox="0 0 700.000000 700.000000"
 preserveAspectRatio="xMidYMid meet">
<metadata>
Created by potrace 1.14, written by Peter Selinger 2001-2017
</metadata>
<g transform="translate(0.000000,700.000000) scale(0.100000,-0.100000)"
fill="#000000" stroke="none">
<path d="M3367 6284 c-1 -1 -42 -5 -92 -8 -49 -3 -101 -8 -115 -10 -14 -3 -45
-7 -70 -10 -63 -8 -134 -22 -262 -51 -91 -20 -312 -94 -398 -132 -344 -154
-574 -301 -810 -519 -131 -121 -199 -195 -343 -374 -56 -69 -206 -304 -234
-365 -7 -16 -18 -37 -23 -45 -17 -26 -90 -183 -90 -193 0 -5 -7 -25 -16 -45
-9 -21 -20 -46 -24 -57 -4 -11 -13 -33 -19 -49 -19 -47 -89 -300 -101 -363 -5
-32 -12 -69 -15 -82 -2 -13 -7 -49 -11 -80 -3 -31 -8 -59 -10 -62 -2 -3 -7
-55 -11 -115 -14 -217 -7 -445 21 -634 23 -151 43 -242 87 -385 36 -119 52
-165 97 -280 36 -90 172 -346 235 -441 162 -246 371 -480 566 -634 25 -19 61
-48 82 -65 106 -85 297 -204 460 -285 187 -95 516 -207 684 -233 17 -3 59 -10
95 -16 276 -45 609 -47 860 -6 19 3 49 8 65 10 62 9 101 17 140 27 22 5 47 11
55 13 31 6 97 25 185 54 552 178 1026 518 1380 989 223 298 400 678 479 1032
29 127 53 279 62 395 13 156 7 476 -10 572 -2 10 -7 45 -12 78 -4 33 -8 62 -9
65 -2 11 -17 87 -22 110 -7 41 -53 211 -73 270 -60 180 -112 301 -203 468 -77
142 -71 131 -139 233 -298 441 -748 810 -1240 1013 -219 91 -515 169 -718 190
-30 3 -80 9 -110 12 -53 6 -368 13 -373 8z"/>
</g>
</svg>
